# xmcd
#
# Track frame offsets:
# 183
# 14113
# 27848
# 41420
# 54868
# 69060
# 82630
# 96045
# 110758
# 125365
#
# Disc length: 1836 seconds
#
#
# Revision: 0
# Processed by: cddbd v1.5.2PL0 Copyright (c) Steve Scherf et al.
# Submitted via: FreeRIP 2.95 
#
DISCID=6f072a0a
DTITLE=Juan Breva - Cátedra Del Cante Vol. 8
DYEAR=1996
DGENRE=Flamenco
TTITLE0=Guajiros
TTITLE1=Verdiales
TTITLE2=Fandangos
TTITLE3=Soleares
TTITLE4=Soleares
TTITLE5=Nalagueñas
TTITLE6=Malagueñas - Fandangos
TTITLE7=Soleares
TTITLE8=Malagueñas
TTITLE9=Petenera
EXTD=
EXTT0=
EXTT1=
EXTT2=
EXTT3=
EXTT4=
EXTT5=
EXTT6=
EXTT7=
EXTT8=
EXTT9=
PLAYORDER=
